<!-- icon666.com - MILLIONS vector ICONS FREE --><svg id="Layer_1" viewBox="0 0 512 512" xmlns="http://www.w3.org/2000/svg" xmlns:xlink="http://www.w3.org/1999/xlink" data-name="Layer 1"><linearGradient id="GradientFill_1" gradientUnits="userSpaceOnUse" x1="86.374" x2="425.627" y1="425.627" y2="86.374"><stop offset="0" stop-color="#001b39"></stop><stop offset=".12" stop-color="#002443"></stop><stop offset=".323" stop-color="#003d5e"></stop><stop offset=".587" stop-color="#00658a"></stop><stop offset=".896" stop-color="#009dc6"></stop><stop offset="1" stop-color="#00b1dc"></stop></linearGradient><path d="m256 16c-132.336 0-240 107.664-240 240s107.664 240 240 240 240-107.661 240-240-107.664-240-240-240zm104.141 145.681a33.163 33.163 0 0 1 18.474 5.6l-122.615 103.346-122.616-103.347a33.155 33.155 0 0 1 18.474-5.6zm-241.641 33.357a33.2 33.2 0 0 1 7.761-21.36l94.161 79.364-94.557 84.793a33.193 33.193 0 0 1 -7.365-20.874zm33.358 155.281a33.156 33.156 0 0 1 -19.034-5.987l94.92-85.118 25.2 21.238a4.739 4.739 0 0 0 6.111 0l23.738-20.007 96.155 84.048a33.171 33.171 0 0 1 -18.807 5.825zm241.642-33.359a33.2 33.2 0 0 1 -7.527 21.081l-95.845-83.778 95.611-80.586a33.2 33.2 0 0 1 7.761 21.362z" fill="url(#GradientFill_1)" fill-rule="evenodd"></path></svg>