<!-- icon666.com - MILLIONS vector ICONS FREE --><svg id="icons" enable-background="new 0 0 64 64" viewBox="0 0 64 64" xmlns="http://www.w3.org/2000/svg"><path d="m15 1.5v5.01 3 8.99c0 1.38.16 2.72.48 4.01.25 1.04.59 2.05 1.029 3 2.41 5.311 7.471 9.17 13.49 9.87.66.08 1.32.12 2 .12s1.34-.04 2-.12c6.02-.7 11.08-4.56 13.49-9.87.439-.95.779-1.96 1.029-3 .322-1.29.482-2.63.482-4.01v-8.99-3-5.01z" fill="#ffce54"></path><path d="m49 25.51h-1.5-.01c.439-.95.779-1.96 1.029-3h.011.47c4.43 0 8-3.58 8-8v-5h-8v-3h9.999l1.001.999v7.001c0 6.08-4.92 11-11 11z" fill="#f6bb42"></path><path d="m7 14.51c0 4.42 3.58 8 8.01 8h.471c.25 1.04.59 2.05 1.029 3h-1.5c-6.09 0-11.01-4.92-11.01-11h.01v-7.001l.99-.999h10v3h-7.99v5z" fill="#f6bb42"></path><path d="m47 48.5h-2-26-2c-1.1 0-2 .9-2 2v11c0 1.1.9 2 2 2h30c1.1 0 2-.9 2-2v-11c0-1.1-.9-2-2-2z" fill="#656d78"></path><path d="m41 54.5v3c-.55 0-1 .45-1 1h-16c0-.55-.45-1-1-1v-3c.55 0 1-.45 1-1h16c0 .55.45 1 1 1z" fill="#ffce54"></path><path d="m45 47.5v1h-26v-1c0-1.11.89-2 2-2h9 4 9c1.11 0 2 .89 2 2z" fill="#ffce54"></path><path d="m34 35.38v10.12h-4v-10.11-.01c.66.08 1.32.12 2 .12s1.34-.04 2-.12z" fill="#f6bb42"></path><path d="m27 24.52c-2.76 0-5-2.239-5-5 0-2.77 2.24-5 5-5h10c2.76 0 5 2.23 5 5 0 2.761-2.24 5-5 5-2.05 0-3.8-1.239-4.58-3h-.84c-.77 1.76-2.53 3-4.58 3z" fill="#edab37"></path><g fill="#ffce54"><path d="m47.999 2.5h-32c-.553 0-1-.447-1-1s.447-1 1-1h32c.553 0 1 .447 1 1s-.447 1-1 1z"></path><path d="m26.998 22.516c-.553 0-1-.447-1-1v-4c0-.553.447-1 1-1s1 .447 1 1v4c0 .552-.447 1-1 1z"></path><path d="m28.998 20.516h-4c-.553 0-1-.447-1-1s.447-1 1-1h4c.553 0 1 .447 1 1s-.447 1-1 1z"></path><path d="m35.062 20.513c-.553 0-1.005-.447-1.005-1s.442-1 .994-1h.011c.552 0 1 .447 1 1s-.449 1-1 1z"></path><path d="m37.062 18.513c-.553 0-1.005-.447-1.005-1s.442-1 .994-1h.011c.552 0 1 .447 1 1s-.449 1-1 1z"></path><path d="m37.063 22.515c-.553 0-1.005-.447-1.005-1s.442-1 .994-1h.011c.552 0 1 .447 1 1s-.448 1-1 1z"></path><path d="m39.063 20.515c-.553 0-1.005-.447-1.005-1s.442-1 .994-1h.011c.552 0 1 .447 1 1s-.448 1-1 1z"></path></g><path d="m31.98 14.506c-.553 0-1-.447-1-1 0-1.654 1.346-3 3-3 .553 0 1 .447 1 1s-.447 1-1 1c-.552 0-1 .448-1 1 0 .553-.447 1-1 1z" fill="#e29f33"></path><path d="m36.979 12.504c-.553 0-1-.447-1-1s.447-1 1-1c.551 0 .998-.447.998-.998s-.447-.998-.998-.998c-.553 0-1-.447-1-1s.447-1 1-1c1.653 0 2.998 1.345 2.998 2.998s-1.345 2.998-2.998 2.998z" fill="#e29f33"></path><path d="m36.979 8.507h-9.996c-.553 0-1-.447-1-1s.447-1 1-1h9.996c.553 0 1 .447 1 1s-.448 1-1 1z" fill="#e29f33"></path><path d="m36.979 12.506h-2.999c-.553 0-1-.447-1-1s.447-1 1-1h2.998c.553 0 1 .447 1 1s-.447 1-.999 1z" fill="#e29f33"></path><path d="m31.98 15.508c-.553 0-1-.447-1-1v-1.002c0-.553.447-1 1-1s1 .447 1 1v1.002c0 .553-.447 1-1 1z" fill="#e29f33"></path><path d="m36.998 25.516c-2.031 0-3.899-1.029-5-2.691-1.098 1.662-2.967 2.691-5 2.691-3.309 0-6-2.691-6-6s2.691-6 6-6h10c3.309 0 6 2.691 6 6s-2.691 6-6 6zm-5.422-5h.844c.397 0 .757.234.916.599.64 1.459 2.077 2.401 3.662 2.401 2.206 0 4-1.794 4-4s-1.794-4-4-4h-10c-2.206 0-4 1.794-4 4s1.794 4 4 4c1.587 0 3.024-.942 3.662-2.4.159-.365.519-.6.916-.6z" fill="#edab37"></path><circle cx="5" cy="7.51" fill="#f6bb42" r="1"></circle><circle cx="59" cy="7.51" fill="#f6bb42" r="1"></circle></svg>